<?xml version="1.0" encoding="UTF-8" standalone="no"?>
<svg xmlns:inkscape="http://www.inkscape.org/namespaces/inkscape" xmlns:sodipodi="http://sodipodi.sourceforge.net/DTD/sodipodi-0.dtd" id="svg1" version="1.1"
        viewBox="0 0 24 24" xmlns="http://www.w3.org/2000/svg"
        inkscape:version="1.3.2 (091e20ef0f, 2023-11-25, custom)" sodipodi:docname="phone-rotate-portrait.svg">
    <defs id="defs1" />
    <sodipodi:namedview bordercolor="#000000" borderopacity="0.25" id="namedview1" pagecolor="#ffffff" inkscape:current-layer="svg1"
            inkscape:cx="9.1365841" inkscape:cy="12.420617" inkscape:deskcolor="#d1d1d1" inkscape:pagecheckerboard="0" inkscape:pageopacity="0.0"
            inkscape:showpageshadow="2" inkscape:window-height="990" inkscape:window-maximized="1" inkscape:window-width="1920" inkscape:window-x="1920"
            inkscape:window-y="384" inkscape:zoom="27.253074" />
    <path style="display:inline;fill-opacity:1;stroke:none;fill-rule:nonzero" d="M 14 1 L 16 5 L 16.919922 3.0898438 C 17.515512 3.3435608 18.066152 3.6701422 18.564453 4.0546875 C 18.622501 4.0992336 18.679566 4.1451635 18.736328 4.1914062 C 18.741374 4.1955173 18.746917 4.1990006 18.751953 4.203125 C 18.800309 4.2429573 18.84921 4.2832582 18.896484 4.3242188 C 18.909107 4.3350969 18.921041 4.3464582 18.933594 4.3574219 C 19.065531 4.4732758 19.19328 4.5924836 19.316406 4.7167969 C 19.720791 5.1250818 20.076144 5.5780074 20.376953 6.0644531 L 20.376953 6.0585938 C 20.578994 6.3850099 20.758249 6.7289003 20.910156 7.0898438 L 19 8 L 23 10 A 9 9 0 0 0 20.376953 3.6523438 A 9 9 0 0 0 20.376953 3.6503906 A 9 9 0 0 0 19.841797 3.15625 A 9 9 0 0 0 19.832031 3.1464844 A 9 9 0 0 0 19.71875 3.0566406 A 9 9 0 0 0 19.257812 2.6992188 A 9 9 0 0 0 19.011719 2.5332031 A 9 9 0 0 0 18.638672 2.2910156 A 9 9 0 0 0 18.564453 2.2441406 L 18.564453 2.25 A 9 9 0 0 0 14 1 z " id="path4-0"
            inkscape:label="rechts" />
    <path style="display:inline" d="M 23,21 V 15 A 2,2 0 0 0 21,13 H 8 a 2,2 0 0 0 -2,2 v 6 a 2,2 0 0 0 2,2 h 13 a 2,2 0 0 0 2,-2 M 9,21 v -6 h 12 v 6 H 9"
            id="path2" inkscape:label="landscape" />
    <path style="display:inline" d="M 9,1 H 3 A 2,2 0 0 0 1,3 v 13 a 2,2 0 0 0 2,2 h 6 a 2,2 0 0 0 2,-2 V 3 A 2,2 0 0 0 9,1 M 9,15 H 3 V 3 h 6 v 12"
            id="path1-9" inkscape:label="portrait" />
    <g style="display:inline" id="layer2" inkscape:groupmode="layer" inkscape:label="Layer 1" />
    <g id="layer3" inkscape:groupmode="layer" inkscape:label="Layer 2" />
</svg>
