<?xml version="1.0" encoding="UTF-8" standalone="no"?>
<svg xmlns:inkscape="http://www.inkscape.org/namespaces/inkscape" xmlns:sodipodi="http://sodipodi.sourceforge.net/DTD/sodipodi-0.dtd" xmlns:xlink="http://www.w3.org/1999/xlink" height="30" id="svg1" version="1.1" viewBox="0 0 30 30"
        width="30" xmlns="http://www.w3.org/2000/svg"
        inkscape:version="1.3.2 (091e20ef0f, 2023-11-25, custom)" sodipodi:docname="puzzle-rotate.svg"
        xml:space="preserve"><defs
     id="defs1"><linearGradient
       id="linearGradient8"
       inkscape:collect="always"><stop
         style="stop-color:#000000;stop-opacity:0;"
         id="stop8"
         offset="0.44549838" /><stop style="stop-color:#000000;stop-opacity:1;" id="stop9" offset="0.44549838" /></linearGradient><linearGradient
        id="linearGradient5" inkscape:collect="always"><stop
         style="stop-color:#000000;stop-opacity:1;"
         id="stop5"
         offset="0.72335625" />
    <stop style="stop-color:#000000;stop-opacity:0;" id="stop6" offset="0.72335625" /></linearGradient><linearGradient gradientUnits="userSpaceOnUse"
        id="linearGradient6" x1="14" x2="23" y1="5.5" y2="5.5" inkscape:collect="always" xlink:href="#linearGradient5" /><linearGradient
        gradientUnits="userSpaceOnUse" id="linearGradient9" x1="14" x2="23" y1="5.5" y2="5.5" inkscape:collect="always"
        xlink:href="#linearGradient8" /></defs>
    <sodipodi:namedview bordercolor="#000000" borderopacity="0.25" id="namedview1" pagecolor="#ffffff" inkscape:current-layer="svg1"
            inkscape:cx="22.098277" inkscape:cy="20.242478" inkscape:deskcolor="#d1d1d1" inkscape:pagecheckerboard="0" inkscape:pageopacity="0.0"
            inkscape:showpageshadow="2" inkscape:window-height="990" inkscape:window-maximized="1" inkscape:window-width="1920" inkscape:window-x="1920"
            inkscape:window-y="384" inkscape:zoom="17.512678" />
    <circle style="display:none;fill:#ff0000;fill-opacity:0.255957;stroke-width:4.42875" cx="15" cy="15" id="path3" r="15" />
    <path style="display:none" d="m 18,15 v 3 h -3 v 2 h 3 v 3 h 2 v -3 h 3 v -2 h -3 v -3 z" id="path2" sodipodi:insensitive="true" />
    <path d="M 16.54,23.11 C 16.17,22.05 15.18,21.3 14,21.3 c -1.5,0 -2.7,1.2 -2.7,2.7 v 1.5 H 7.5 c -1.0999999,0 -2,-0.89 -2,-2 V 19.7 H 7 C 8.5,19.7 9.7000013,18.5 9.7000013,17 9.7000013,15.5 8.5,14.3 7,14.3 H 5.5 v -3.8 c 0,-1.0999998 0.9000001,-1.9999998 2,-1.9999998 h 4 v -1.5 c 0,-1.38 1.12,-2.5 2.5,-2.5 1.38,0 2.5,1.12 2.5,2.5 v 1.5 h 4 c 1.1,0 2,0.89 2,1.9999998 v 4 H 24 c 1.38,0 2.5,1.12 2.5,2.5 0,0.32 -0.06,0.62 -0.17,0.89 -1.04,-0.86 -2.37,-1.39 -3.83,-1.39 -3.31,0 -6,2.69 -6,6 0,0.2 0,0.41 0.04,0.61"
            id="path1" />
    <g id="g2" transform="matrix(0.32727273,0,0,0.32727273,17.972727,17.972727)"><path
       style="display:inline;fill:url(#linearGradient9);stroke:none"
       d="M 23,10 19,8 20.91,7.09 C 19.74,4.31 17,2.5 14,2.5 V 1 a 9,9 0 0 1 9,9 z"
       id="path4-0"
       inkscape:label="rechts" />
        <path style="display:inline;fill:url(#linearGradient6);stroke:none"
                d="M 23,10 H 21.5 C 21.5,7 19.69,4.27 16.92,3.09 L 16,5 14,1 a 9,9 0 0 1 9,9 z" id="path4" inkscape:label="links" />
        <path style="display:inline" d="M 23,21 V 15 A 2,2 0 0 0 21,13 H 8 a 2,2 0 0 0 -2,2 v 6 a 2,2 0 0 0 2,2 h 13 a 2,2 0 0 0 2,-2 M 9,21 v -6 h 12 v 6 H 9"
                id="path2-9" inkscape:label="landscape" />
        <path style="display:inline" d="M 9,1 H 3 A 2,2 0 0 0 1,3 v 13 a 2,2 0 0 0 2,2 h 6 a 2,2 0 0 0 2,-2 V 3 A 2,2 0 0 0 9,1 M 9,15 H 3 V 3 h 6 v 12"
                id="path1-9" inkscape:label="portrait" /></g>
    <g style="fill:none;stroke:#00ff00;stroke-opacity:1;stroke-width:1;stroke-dasharray:none" id="layer1" inkscape:groupmode="layer"
            inkscape:label="Hilfslinien" /></svg>
