<?xml version="1.0" encoding="UTF-8" standalone="no"?>
<svg xmlns:cc="http://creativecommons.org/ns#" xmlns:dc="http://purl.org/dc/elements/1.1/"
        xmlns:inkscape="http://www.inkscape.org/namespaces/inkscape" xmlns:rdf="http://www.w3.org/1999/02/22-rdf-syntax-ns#"
        xmlns:sodipodi="http://sodipodi.sourceforge.net/DTD/sodipodi-0.dtd" height="495.28848" id="svg8" version="1.1"
        viewBox="0 0 154.08972 139.78142" width="545.98718" xmlns="http://www.w3.org/2000/svg"
        inkscape:version="1.3.2 (091e20ef0f, 2023-11-25, custom)" sodipodi:docname="Xposed_Framework_Icon.svg">
    <sodipodi:namedview bordercolor="#000000" borderopacity="0.25" id="namedview1" pagecolor="#ffffff" inkscape:current-layer="svg8"
            inkscape:cx="262.97619" inkscape:cy="247.64424" inkscape:deskcolor="#d1d1d1" inkscape:export-bgcolor="#ffffff00"
            inkscape:pagecheckerboard="0" inkscape:pageopacity="0.0" inkscape:showpageshadow="2" inkscape:window-height="990"
            inkscape:window-maximized="1" inkscape:window-width="1920" inkscape:window-x="1920" inkscape:window-y="384" inkscape:zoom="1.5001358" />
    <defs id="defs2">
        <clipPath clipPathUnits="userSpaceOnUse" id="clipPath4566">
            <rect style="fill:#000000;fill-opacity:0.09144335;stroke-width:0.26458332" clip-path="none" height="48.75893" id="rect4568"
                    width="49.892857" x="45.735123" y="110.00767" />
        </clipPath>
    </defs>
    <metadata id="metadata5">
        <rdf:RDF>
            <cc:Work rdf:about="">
                <dc:format>image/svg+xml</dc:format>
                <dc:type rdf:resource="http://purl.org/dc/dcmitype/StillImage" />
            </cc:Work>
        </rdf:RDF>
    </metadata>
    <g style="display:inline" id="layer1" transform="translate(-24.60907,-81.819586)">
        <path style="fill:#000000;stroke:#b1b1b1;stroke-width:3;stroke-linecap:butt;stroke-linejoin:round;stroke-miterlimit:4;stroke-dasharray:none;stroke-opacity:1"
                d="m 92.53969,180.29625 c -0.0423,10.1486 -0.0846,20.29719 -0.12694,30.44579 -0.039,8.17902 0.7954,9.26448 9.282,9.35897 l 67.45215,0 c 6.64457,-0.0945 7.95127,-1.4743 8.05189,-8.12298 l -0.0903,-115.42704 c -0.0103,-11.292154 -1.8426,-13.164804 -13.1733,-13.150714 -20.54781,0.02394 -39.19981,-0.153274 -60.67023,-0.04573 -7.31695,0 -10.89123,0.935443 -10.96853,10.869648 l -0.28591,29.160586 19.64431,0 0,6.04012 c -2.51289,1.62533 -4.82665,3.84805 -5.7346,7.54573 -0.22299,0.77838 -0.25171,1.58748 -0.20442,2.33267 0.2677,4.06482 2.91831,8.28021 8.57267,8.92114 0.72714,0.0725 1.44091,0.1128 2.11912,0.0601 4.26103,-0.34122 8.67961,-3.97249 8.6225,-9.44722 0.005,-0.62639 -0.0902,-1.22459 -0.21863,-1.79522 -0.86582,-3.8224 -3.19671,-5.80817 -5.80673,-7.48301 l -0.13363,-6.17435 17.50281,0.26521 c 3.32404,0.43721 4.51498,2.47155 4.76759,4.40553 l 0.0466,19.22132 2.93996,0 c 2.56068,-3.31919 5.8388,-4.81022 9.45037,-4.7221 5.01527,0.43784 7.932,4.16414 8.50087,7.31382 0.1254,1.24109 0.16812,2.4317 0.0123,3.57663 -0.72402,5.2504 -5.51023,8.03356 -8.592,8.32816 -0.57141,0.0396 -1.09472,0.0375 -1.62338,0.021 -3.49002,-0.15795 -6.11836,-1.82028 -7.74821,-5.25578 l -2.93996,0 -0.13201,18.15795 c 0.2193,3.4649 -2.51381,5.35156 -4.5216,5.42733 z"
                id="path5510" />
        <path style="fill:#87cdde;stroke:#000000;stroke-width:0;stroke-linecap:butt;stroke-linejoin:miter;stroke-miterlimit:4;stroke-dasharray:none;stroke-opacity:1"
                d="m 96.020961,97.069751 75.571239,0 0,108.857149 -75.140365,0.21544 -0.430874,-21.40856 43.292749,-0.21543 c 3.4063,0 6.21354,-3.59953 6.21354,-5.63804 l 0.21544,-14.36574 c 13.92565,6.25352 21.61214,-3.68848 20.84458,-13.3891 -0.50929,-6.43648 -3.19754,-11.36905 -11.70008,-12.81308 -3.28898,-0.47787 -6.05662,0.87324 -9.44303,2.51751 l 0.24313,-15.29406 c 0,-3.6553 -6.30537,-6.31668 -8.25475,-6.31668 l -41.627016,-0.21544 z"
                id="path5546" />
    </g>
    <g style="display:inline" id="layer2" transform="translate(-24.60907,-81.819586)">
        <path style="fill:#000000;fill-opacity:1;stroke:#b2b2b2;stroke-width:3;stroke-linecap:butt;stroke-linejoin:round;stroke-miterlimit:4;stroke-dasharray:none;stroke-opacity:1"
                d="m 26.10907,178.96074 0,-56.91147 19.64431,0 0,0 0,6.04012 c -3.81993,2.29903 -5.63595,5.44845 -5.94313,8.57087 -0.10851,7.05945 4.9881,10.11057 9.40472,10.27824 5.39741,0.20488 10.301529,-3.8965 9.95128,-10.25138 -0.271218,-3.15073 -2.256161,-6.26786 -6.06296,-8.4635 l -0.13363,-6.17435 15.635261,0 c 3.856031,-0.11475 6.68175,2.1554 6.68175,6.31937 l 0,17.57269 2.939959,0 c 2.373949,-3.34881 5.871391,-4.81955 9.15175,-4.66501 5.93215,0.22291 8.908356,4.8282 8.880464,9.47255 -0.02811,4.67612 -3.101524,9.39193 -9.269454,9.71445 -3.08328,-0.0388 -6.368669,-0.6985 -8.76276,-5.26043 l -2.939959,0 0,18.1312 c 0,3.45804 -2.687812,5.62665 -5.46829,5.62665 z"
                id="path4700" />
    </g>
</svg>
